HIERARCHY
ROOT Hips
{
	OFFSET -0.000001 93.996948 3.948254
	CHANNELS 6 Xposition Yposition Zposition Xrotation Yrotation Zrotation
	JOINT Spine1
	{
		OFFSET 0.000032 8.483833 -3.948275
		CHANNELS 6 Xposition Yposition Zposition Xrotation Yrotation Zrotation
		JOINT Spine2
		{
			OFFSET 0.000001 7.550011 -0.000000
			CHANNELS 6 Xposition Yposition Zposition Xrotation Yrotation Zrotation
			JOINT Spine3
			{
				OFFSET 0.000001 7.550003 -0.000001
				CHANNELS 6 Xposition Yposition Zposition Xrotation Yrotation Zrotation
				JOINT Spine4
				{
					OFFSET -0.000030 12.748734 -0.000001
					CHANNELS 6 Xposition Yposition Zposition Xrotation Yrotation Zrotation
					JOINT Neck
					{
						OFFSET 0.000001 20.150330 -0.000031
						CHANNELS 6 Xposition Yposition Zposition Xrotation Yrotation Zrotation
						JOINT Head
						{
							OFFSET -0.000009 11.100937 0.000009
							CHANNELS 6 Xposition Yposition Zposition Xrotation Yrotation Zrotation
							End Site
							{
								OFFSET -0.000003 -11.100937 -0.000006
							}
						}
					}
					JOINT RightShoulder
					{
						OFFSET -7.000000 12.368073 1.903786
						CHANNELS 6 Xposition Yposition Zposition Xrotation Yrotation Zrotation
						JOINT RightArm
						{
							OFFSET -13.607778 -0.000031 -0.000001
							CHANNELS 6 Xposition Yposition Zposition Xrotation Yrotation Zrotation
							JOINT RightForeArm
							{
								OFFSET -27.102148 -0.000046 0.000050
								CHANNELS 6 Xposition Yposition Zposition Xrotation Yrotation Zrotation
								JOINT RightHand
								{
									OFFSET -28.299988 -0.000031 -0.000030
									CHANNELS 6 Xposition Yposition Zposition Xrotation Yrotation Zrotation
									JOINT RightFinger1Metacarpal
									{
										OFFSET -2.077995 -0.102997 2.784805
										CHANNELS 6 Xposition Yposition Zposition Xrotation Yrotation Zrotation
										JOINT RightFinger1Proximal
										{
											OFFSET -3.454681 0.000015 1.994656
											CHANNELS 6 Xposition Yposition Zposition Xrotation Yrotation Zrotation
											JOINT RightFinger1Distal
											{
												OFFSET -3.027802 -0.000031 -0.000007
												CHANNELS 6 Xposition Yposition Zposition Xrotation Yrotation Zrotation
												End Site
												{
													OFFSET 3.027802 0.000015 0.000003
												}
											}
										}
									}
									JOINT RightFinger5Metacarpal
									{
										OFFSET -2.487846 -0.102982 -1.487572
										CHANNELS 6 Xposition Yposition Zposition Xrotation Yrotation Zrotation
										JOINT RightFinger5Proximal
										{
											OFFSET -4.460068 -0.000046 -1.623385
											CHANNELS 6 Xposition Yposition Zposition Xrotation Yrotation Zrotation
											JOINT RightFinger5Medial
											{
												OFFSET -3.500015 0.000000 0.000003
												CHANNELS 6 Xposition Yposition Zposition Xrotation Yrotation Zrotation
												JOINT RightFinger5Distal
												{
													OFFSET -2.199982 0.000015 -0.000002
													CHANNELS 6 Xposition Yposition Zposition Xrotation Yrotation Zrotation
													End Site
													{
														OFFSET 2.199982 0.000000 0.000004
													}
												}
											}
										}
									}
									JOINT RightFinger4Metacarpal
									{
										OFFSET -2.742973 -0.102997 -0.547513
										CHANNELS 6 Xposition Yposition Zposition Xrotation Yrotation Zrotation
										JOINT RightFinger4Proximal
										{
											OFFSET -4.956100 0.000000 -0.873948
											CHANNELS 6 Xposition Yposition Zposition Xrotation Yrotation Zrotation
											JOINT RightFinger4Medial
											{
												OFFSET -4.299995 -0.000061 0.000008
												CHANNELS 6 Xposition Yposition Zposition Xrotation Yrotation Zrotation
												JOINT RightFinger4Distal
												{
													OFFSET -2.773201 0.000015 0.000001
													CHANNELS 6 Xposition Yposition Zposition Xrotation Yrotation Zrotation
													End Site
													{
														OFFSET 2.773193 0.000000 0.000005
													}
												}
											}
										}
									}
									JOINT RightFinger3Metacarpal
									{
										OFFSET -2.767418 -0.102982 0.544732
										CHANNELS 6 Xposition Yposition Zposition Xrotation Yrotation Zrotation
										JOINT RightFinger3Proximal
										{
											OFFSET -5.364998 -0.000046 -0.000019
											CHANNELS 6 Xposition Yposition Zposition Xrotation Yrotation Zrotation
											JOINT RightFinger3Medial
											{
												OFFSET -4.699974 0.000000 0.000005
												CHANNELS 6 Xposition Yposition Zposition Xrotation Yrotation Zrotation
												JOINT RightFinger3Distal
												{
													OFFSET -3.099998 -0.000015 0.000002
													CHANNELS 6 Xposition Yposition Zposition Xrotation Yrotation Zrotation
													End Site
													{
														OFFSET 3.100006 0.000000 0.000005
													}
												}
											}
										}
									}
									JOINT RightFinger2Metacarpal
									{
										OFFSET -2.645569 -0.102982 1.603400
										CHANNELS 6 Xposition Yposition Zposition Xrotation Yrotation Zrotation
										JOINT RightFinger2Proximal
										{
											OFFSET -5.331619 -0.000031 0.940092
											CHANNELS 6 Xposition Yposition Zposition Xrotation Yrotation Zrotation
											JOINT RightFinger2Medial
											{
												OFFSET -4.499969 0.000031 0.000002
												CHANNELS 6 Xposition Yposition Zposition Xrotation Yrotation Zrotation
												JOINT RightFinger2Distal
												{
													OFFSET -2.768509 0.000000 0.000002
													CHANNELS 6 Xposition Yposition Zposition Xrotation Yrotation Zrotation
													End Site
													{
														OFFSET 2.768509 0.000000 0.000004
													}
												}
											}
										}
									}
								}
							}
						}
					}
					JOINT LeftShoulder
					{
						OFFSET 7.000000 12.368057 1.903799
						CHANNELS 6 Xposition Yposition Zposition Xrotation Yrotation Zrotation
						JOINT LeftArm
						{
							OFFSET 13.607780 0.000015 0.000002
							CHANNELS 6 Xposition Yposition Zposition Xrotation Yrotation Zrotation
							JOINT LeftForeArm
							{
								OFFSET 27.102152 -0.000031 0.000091
								CHANNELS 6 Xposition Yposition Zposition Xrotation Yrotation Zrotation
								JOINT LeftHand
								{
									OFFSET 28.299984 -0.000031 0.000006
									CHANNELS 6 Xposition Yposition Zposition Xrotation Yrotation Zrotation
									JOINT LeftFinger5Metacarpal
									{
										OFFSET 2.487846 -0.102997 -1.487590
										CHANNELS 6 Xposition Yposition Zposition Xrotation Yrotation Zrotation
										JOINT LeftFinger5Proximal
										{
											OFFSET 4.460068 -0.000046 -1.623356
											CHANNELS 6 Xposition Yposition Zposition Xrotation Yrotation Zrotation
											JOINT LeftFinger5Medial
											{
												OFFSET 3.499985 0.000000 0.000001
												CHANNELS 6 Xposition Yposition Zposition Xrotation Yrotation Zrotation
												JOINT LeftFinger5Distal
												{
													OFFSET 2.199982 0.000015 0.000011
													CHANNELS 6 Xposition Yposition Zposition Xrotation Yrotation Zrotation
													End Site
													{
														OFFSET -2.199982 0.000000 0.000004
													}
												}
											}
										}
									}
									JOINT LeftFinger4Metacarpal
									{
										OFFSET 2.742973 -0.102982 -0.547558
										CHANNELS 6 Xposition Yposition Zposition Xrotation Yrotation Zrotation
										JOINT LeftFinger4Proximal
										{
											OFFSET 4.956093 -0.000061 -0.873885
											CHANNELS 6 Xposition Yposition Zposition Xrotation Yrotation Zrotation
											JOINT LeftFinger4Medial
											{
												OFFSET 4.299995 0.000031 0.000002
												CHANNELS 6 Xposition Yposition Zposition Xrotation Yrotation Zrotation
												JOINT LeftFinger4Distal
												{
													OFFSET 2.773186 -0.000046 0.000005
													CHANNELS 6 Xposition Yposition Zposition Xrotation Yrotation Zrotation
													End Site
													{
														OFFSET -2.773178 0.000000 0.000004
													}
												}
											}
										}
									}
									JOINT LeftFinger3Metacarpal
									{
										OFFSET 2.767410 -0.102982 0.544737
										CHANNELS 6 Xposition Yposition Zposition Xrotation Yrotation Zrotation
										JOINT LeftFinger3Proximal
										{
											OFFSET 5.364967 -0.000015 -0.000021
											CHANNELS 6 Xposition Yposition Zposition Xrotation Yrotation Zrotation
											JOINT LeftFinger3Medial
											{
												OFFSET 4.699997 0.000046 0.000009
												CHANNELS 6 Xposition Yposition Zposition Xrotation Yrotation Zrotation
												JOINT LeftFinger3Distal
												{
													OFFSET 3.099983 -0.000015 -0.000002
													CHANNELS 6 Xposition Yposition Zposition Xrotation Yrotation Zrotation
													End Site
													{
														OFFSET -3.099976 0.000000 0.000006
													}
												}
											}
										}
									}
									JOINT LeftFinger2Metacarpal
									{
										OFFSET 2.645523 -0.103012 1.603395
										CHANNELS 6 Xposition Yposition Zposition Xrotation Yrotation Zrotation
										JOINT LeftFinger2Proximal
										{
											OFFSET 5.331627 0.000046 0.940115
											CHANNELS 6 Xposition Yposition Zposition Xrotation Yrotation Zrotation
											JOINT LeftFinger2Medial
											{
												OFFSET 4.499977 -0.000046 0.000007
												CHANNELS 6 Xposition Yposition Zposition Xrotation Yrotation Zrotation
												JOINT LeftFinger2Distal
												{
													OFFSET 2.768486 0.000000 -0.000012
													CHANNELS 6 Xposition Yposition Zposition Xrotation Yrotation Zrotation
													End Site
													{
														OFFSET -2.768478 0.000000 0.000004
													}
												}
											}
										}
									}
									JOINT LeftFinger1Metacarpal
									{
										OFFSET 2.077988 -0.103027 2.784891
										CHANNELS 6 Xposition Yposition Zposition Xrotation Yrotation Zrotation
										JOINT LeftFinger1Proximal
										{
											OFFSET 3.454681 -0.000031 1.994549
											CHANNELS 6 Xposition Yposition Zposition Xrotation Yrotation Zrotation
											JOINT LeftFinger1Distal
											{
												OFFSET 3.027786 -0.000031 -0.000037
												CHANNELS 6 Xposition Yposition Zposition Xrotation Yrotation Zrotation
												End Site
												{
													OFFSET -3.027786 0.000015 0.000004
												}
											}
										}
									}
								}
							}
						}
					}
				}
			}
		}
	}
	JOINT RightThigh
	{
		OFFSET -8.099951 0.000000 -0.000000
		CHANNELS 6 Xposition Yposition Zposition Xrotation Yrotation Zrotation
		JOINT RightShin
		{
			OFFSET 0.000002 -43.200016 0.000017
			CHANNELS 6 Xposition Yposition Zposition Xrotation Yrotation Zrotation
			JOINT RightFoot
			{
				OFFSET -0.062555 -43.299969 0.000014
				CHANNELS 6 Xposition Yposition Zposition Xrotation Yrotation Zrotation
				JOINT RightToe
				{
					OFFSET -0.000010 -6.239449 13.169401
					CHANNELS 6 Xposition Yposition Zposition Xrotation Yrotation Zrotation
					End Site
					{
						OFFSET 0.000008 0.000001 -14.572708
					}
				}
			}
		}
	}
	JOINT LeftThigh
	{
		OFFSET 8.099950 0.000000 -0.000001
		CHANNELS 6 Xposition Yposition Zposition Xrotation Yrotation Zrotation
		JOINT LeftShin
		{
			OFFSET -0.000025 -43.199982 0.000016
			CHANNELS 6 Xposition Yposition Zposition Xrotation Yrotation Zrotation
			JOINT LeftFoot
			{
				OFFSET 0.062445 -43.299973 0.000030
				CHANNELS 6 Xposition Yposition Zposition Xrotation Yrotation Zrotation
				JOINT LeftToe
				{
					OFFSET -0.000023 -6.239417 13.169409
					CHANNELS 6 Xposition Yposition Zposition Xrotation Yrotation Zrotation
					End Site
					{
						OFFSET -0.000013 -0.000016 -14.572701
					}
				}
			}
		}
	}
}
MOTION
Frames: 3
Frame Time: 0.033333
-5.244916 79.268509 -0.000010 11.521232 12.423777 -2.844996 0.000031 8.483849 -3.948277 0.000002 -0.000001 0.000014 0.000001 7.549988 -0.000003 -0.000000 -0.000001 0.000000 0.000002 7.550011 0.000000 0.000001 -0.000001 0.000000 -0.000027 12.748734 -0.000001 -0.000005 -23.047618 0.000001 -0.000001 20.150345 -0.000028 0.000002 -0.000000 -0.000000 -0.000008 11.100937 0.000007 0.490256 0.087809 0.019022 -7.000000 12.368061 1.903791 0.000088 0.000000 -0.000053 -13.607790 -0.000003 0.000003 -8.785181 15.969628 84.901560 -27.102135 -0.000052 -0.000035 0.088279 21.490864 -0.542200 -28.299969 -0.000040 -0.000095 -0.000002 0.000001 -0.000005 -2.078000 -0.102977 2.784879 58.687287 -1.786365 -12.439764 -3.454683 -0.000033 1.994534 0.384976 23.648589 6.196482 -3.027770 -0.000010 0.000016 0.354965 -6.350826 6.390196 -2.487860 -0.102975 -1.487617 -5.877652 -0.587587 5.118791 -4.460032 -0.000019 -1.623347 -13.699200 -10.889722 13.511404 -3.499996 -0.000043 -0.000006 -0.000035 -0.000000 18.000009 -2.199970 0.000038 -0.000007 -0.000024 0.000003 18.000021 -2.742980 -0.102994 -0.547552 -2.720100 -0.128106 2.547552 -4.956045 -0.000004 -0.873914 -8.112389 -1.343032 16.789776 -4.300014 0.000004 0.000000 -0.000039 0.000002 18.000012 -2.773178 -0.000007 -0.000005 -0.000029 0.000002 18.000009 -2.767437 -0.103008 0.544724 -0.000000 -0.000013 -0.000103 -5.364964 -0.000012 -0.000034 -1.673205 5.134990 18.075085 -4.699996 0.000005 -0.000010 -0.000037 0.000006 18.000006 -3.099972 -0.000008 -0.000003 -0.000034 0.000004 18.000007 -2.645581 -0.103019 1.603410 1.230944 -0.002501 -0.217158 -5.331570 -0.000006 0.940071 0.562038 8.287816 17.910744 -4.499969 0.000025 -0.000010 -0.000028 -0.000003 18.000016 -2.768494 -0.000004 0.000001 -0.000027 -0.000001 18.000014 6.999998 12.368088 1.903801 -0.000008 0.000005 -0.000000 13.607780 0.000004 0.000005 7.126323 0.504513 -76.633404 27.102154 -0.000032 0.000039 -0.117083 -14.218116 -0.889972 28.299984 -0.000012 -0.000100 0.000001 0.000001 0.000025 2.487857 -0.102958 -1.487617 -5.877495 0.587633 -5.118830 4.460045 -0.000021 -1.623341 -13.699341 10.889687 -13.511460 3.500008 -0.000008 -0.000012 0.000062 -0.000014 -18.000012 2.199983 0.000020 0.000005 -0.000122 -0.000040 -18.000019 2.742989 -0.102972 -0.547553 -2.719963 0.128174 -2.547590 4.956051 -0.000030 -0.873906 -8.112526 1.342984 -16.789819 4.300011 0.000021 -0.000007 -0.000037 0.000001 -17.999990 2.773174 -0.000009 -0.000008 -0.000023 0.000009 -18.000004 2.767428 -0.102964 0.544726 0.000001 0.000010 0.000033 5.364955 0.000008 -0.000038 -1.673218 -5.134986 -18.075083 4.700005 0.000034 -0.000008 -0.000031 0.000004 -18.000053 3.099998 0.000034 -0.000013 -0.000034 -0.000007 -18.000001 2.645571 -0.102996 1.603412 1.231092 0.002566 0.217094 5.331566 0.000008 0.940083 0.561899 -8.287863 -17.910730 4.499978 0.000006 -0.000004 -0.000026 0.000006 -18.000045 2.768486 0.000002 -0.000019 -0.000027 -0.000003 -18.000016 2.077991 -0.102979 2.784867 58.687335 1.786364 12.439760 3.454690 -0.000038 1.994549 0.385049 -23.648603 -6.196398 3.027835 -0.000034 0.000011 0.354922 6.350775 -6.390226 -8.099949 0.000007 0.000002 -32.276407 -6.010930 3.408299 0.000002 -43.200008 0.000021 72.299062 -0.228035 -0.243257 -0.062554 -43.299992 0.000015 -31.448373 0.078172 -0.357158 -0.000010 -6.239441 13.169403 -14.979691 0.982023 -0.000007 8.099951 0.000016 0.000005 -51.297743 4.612834 2.205505 -0.000025 -43.199986 0.000027 77.861404 0.142572 0.115664 0.062443 -43.299976 0.000021 -18.998801 0.185834 4.623509 -0.000021 -6.239411 13.169407 -14.638245 0.673928 0.000032 
-5.181839 93.855431 0.158961 12.079336 12.435230 -2.796899 0.000033 8.483849 -3.948276 -0.000000 -0.000001 0.000014 0.000001 7.549995 -0.000001 -0.000002 0.000000 -0.000000 0.000001 7.550011 -0.000005 0.000001 0.000000 -0.000000 -0.000027 12.748749 -0.000004 -0.000004 -22.938543 0.000000 0.000001 20.150360 -0.000033 -0.000001 -0.000001 -0.000000 -0.000009 11.100937 0.000009 0.282254 -0.007483 0.063704 -6.999996 12.368061 1.903786 0.000087 0.000001 -0.000053 -13.607780 0.000004 0.000001 -9.262397 15.390045 84.979335 -27.102140 -0.000037 -0.000037 0.133327 21.133461 -0.832180 -28.299967 -0.000040 -0.000091 0.000000 -0.000002 -0.000005 -2.077954 -0.102965 2.784868 58.687301 -1.786355 -12.439758 -3.454691 -0.000032 1.994534 0.384970 23.648584 6.196483 -3.027778 -0.000007 0.000006 0.354956 -6.350830 6.390196 -2.487834 -0.102960 -1.487621 -5.877652 -0.587583 5.118791 -4.460006 -0.000017 -1.623343 -13.699205 -10.889728 13.511412 -3.500008 -0.000023 -0.000003 -0.000029 -0.000002 18.000006 -2.200001 0.000039 -0.000010 -0.000028 0.000004 18.000018 -2.742948 -0.102981 -0.547556 -2.720099 -0.128105 2.547552 -4.956057 -0.000004 -0.873910 -8.112384 -1.343034 16.789778 -4.300018 0.000008 -0.000003 -0.000032 0.000002 18.000016 -2.773167 0.000008 -0.000005 -0.000030 -0.000005 18.000006 -2.767399 -0.102979 0.544720 -0.000000 -0.000011 -0.000103 -5.364956 -0.000005 -0.000035 -1.673205 5.134993 18.075081 -4.700000 0.000001 -0.000012 -0.000027 0.000006 18.000009 -3.099979 -0.000027 -0.000002 -0.000035 0.000003 18.000004 -2.645540 -0.103005 1.603406 1.230944 -0.002496 -0.217159 -5.331574 -0.000010 0.940074 0.562043 8.287814 17.910737 -4.499974 0.000024 -0.000006 -0.000037 -0.000006 18.000007 -2.768498 0.000010 -0.000008 -0.000028 -0.000008 18.000004 7.000002 12.368073 1.903800 -0.000010 0.000005 0.000001 13.607774 0.000018 -0.000001 6.530871 0.166921 -76.217015 27.102160 -0.000031 0.000032 -0.066912 -14.341502 -0.503767 28.300009 -0.000015 -0.000102 0.000001 0.000001 0.000025 2.487853 -0.102956 -1.487616 -5.877496 0.587636 -5.118828 4.460042 -0.000015 -1.623340 -13.699344 10.889686 -13.511464 3.499993 -0.000002 -0.000014 0.000065 -0.000014 -18.000011 2.199990 0.000041 0.000004 -0.000120 -0.000035 -18.000024 2.742978 -0.102967 -0.547553 -2.719961 0.128173 -2.547589 4.956051 -0.000045 -0.873904 -8.112520 1.342982 -16.789824 4.300014 0.000021 -0.000006 -0.000023 0.000000 -17.999987 2.773182 -0.000007 -0.000008 -0.000026 0.000011 -17.999994 2.767432 -0.102965 0.544726 0.000001 0.000011 0.000034 5.364971 -0.000009 -0.000039 -1.673212 -5.134985 -18.075081 4.699963 0.000034 -0.000008 -0.000035 0.000007 -18.000057 3.099987 0.000022 -0.000014 -0.000033 -0.000003 -17.999990 2.645572 -0.102993 1.603414 1.231096 0.002566 0.217096 5.331570 0.000012 0.940081 0.561896 -8.287862 -17.910728 4.499959 0.000007 -0.000003 -0.000020 0.000007 -18.000045 2.768486 -0.000011 -0.000020 -0.000027 -0.000001 -18.000009 2.078001 -0.102981 2.784854 58.687335 1.786370 12.439752 3.454680 -0.000022 1.994553 0.385055 -23.648605 -6.196397 3.027795 -0.000048 0.000018 0.354924 6.350776 -6.390229 -8.099949 -0.000009 0.000001 -12.937271 -4.476812 4.091482 0.000002 -43.200012 0.000019 27.661544 -0.030050 -0.079609 -0.062553 -43.299992 0.000019 -6.750846 0.028873 0.396890 -0.000008 -6.239442 13.169396 -14.948492 0.970541 -0.000009 8.099953 0.000007 -0.000004 -31.354253 4.445214 0.379334 -0.000025 -43.199966 0.000027 37.664142 0.024676 0.041314 0.062443 -43.299976 0.000020 0.913543 0.916129 4.141874 -0.000021 -6.239413 13.169408 -14.726731 0.668614 0.000032 
-5.094711 93.807007 0.307710 12.711972 12.420252 -2.701151 0.000032 8.483849 -3.948272 -0.000001 0.000000 0.000014 -0.000000 7.549995 -0.000003 -0.000000 -0.000001 -0.000000 -0.000000 7.550011 -0.000003 -0.000000 -0.000001 0.000000 -0.000026 12.748734 -0.000000 -0.000002 -22.794450 0.000001 0.000002 20.150345 -0.000032 0.000001 -0.000000 -0.000000 -0.000009 11.100952 0.000013 0.058479 -0.105548 0.064162 -6.999997 12.368061 1.903787 0.000086 0.000000 -0.000053 -13.607800 0.000015 -0.000006 -10.016931 14.359324 85.104123 -27.102148 -0.000052 -0.000036 0.217622 20.703760 -1.384956 -28.299967 -0.000040 -0.000088 0.000002 0.000000 -0.000005 -2.077964 -0.102955 2.784885 58.687287 -1.786363 -12.439762 -3.454659 -0.000020 1.994529 0.384981 23.648581 6.196482 -3.027781 -0.000009 0.000010 0.354958 -6.350826 6.390192 -2.487854 -0.102972 -1.487614 -5.877650 -0.587587 5.118791 -4.460021 -0.000017 -1.623350 -13.699204 -10.889727 13.511408 -3.500000 -0.000020 -0.000008 -0.000032 0.000001 18.000006 -2.199993 0.000022 -0.000010 -0.000026 0.000000 18.000016 -2.742960 -0.102981 -0.547552 -2.720099 -0.128109 2.547553 -4.956045 -0.000016 -0.873915 -8.112386 -1.343032 16.789780 -4.300011 0.000004 -0.000001 -0.000039 0.000003 18.000009 -2.773170 -0.000009 -0.000007 -0.000035 -0.000003 18.000006 -2.767402 -0.102980 0.544727 0.000000 -0.000014 -0.000102 -5.364967 -0.000025 -0.000035 -1.673210 5.134993 18.075085 -4.699981 0.000005 -0.000009 -0.000024 0.000007 18.000011 -3.099979 -0.000022 -0.000002 -0.000030 0.000003 18.000012 -2.645558 -0.103003 1.603409 1.230943 -0.002499 -0.217158 -5.331563 -0.000014 0.940070 0.562043 8.287813 17.910742 -4.499969 0.000023 -0.000010 -0.000028 0.000001 18.000007 -2.768501 -0.000007 -0.000009 -0.000029 -0.000000 18.000023 7.000003 12.368088 1.903797 -0.000010 0.000006 -0.000000 13.607781 -0.000014 0.000007 5.529481 -0.329767 -75.537739 27.102146 -0.000040 0.000034 0.018336 -14.427465 0.137913 28.299994 0.000003 -0.000101 0.000000 0.000001 0.000024 2.487835 -0.102956 -1.487620 -5.877496 0.587636 -5.118830 4.460038 -0.000034 -1.623343 -13.699339 10.889689 -13.511460 3.500004 -0.000010 -0.000016 0.000059 -0.000015 -18.000011 2.199990 0.000024 0.000005 -0.000119 -0.000034 -18.000021 2.742964 -0.102969 -0.547554 -2.719964 0.128174 -2.547590 4.956043 -0.000030 -0.873902 -8.112525 1.342982 -16.789819 4.300003 0.000021 -0.000008 -0.000028 0.000002 -17.999985 2.773197 -0.000007 -0.000008 -0.000021 0.000014 -18.000006 2.767418 -0.102967 0.544726 -0.000001 0.000011 0.000034 5.364971 -0.000013 -0.000039 -1.673212 -5.134985 -18.075086 4.699986 0.000043 -0.000010 -0.000029 0.000006 -18.000059 3.100029 0.000017 -0.000014 -0.000035 -0.000003 -17.999994 2.645571 -0.102995 1.603414 1.231094 0.002566 0.217094 5.331604 0.000008 0.940083 0.561896 -8.287864 -17.910730 4.499966 0.000005 -0.000005 -0.000020 0.000008 -18.000047 2.768501 0.000004 -0.000020 -0.000026 -0.000002 -18.000016 2.077976 -0.102988 2.784865 58.687308 1.786368 12.439762 3.454680 -0.000006 1.994549 0.385053 -23.648608 -6.196393 3.027805 -0.000032 0.000018 0.354926 6.350774 -6.390226 -8.099952 0.000005 0.000002 -13.468433 -4.995316 3.726435 0.000002 -43.200016 0.000022 27.770098 -0.032035 -0.085613 -0.062554 -43.300003 0.000019 -7.085563 0.028952 0.444576 -0.000011 -6.239442 13.169396 -14.859505 0.946217 -0.000008 8.099951 -0.000001 0.000000 -31.940833 4.615547 0.168053 -0.000026 -43.199974 0.000025 37.851744 0.025147 0.041967 0.062442 -43.299973 0.000020 0.845692 0.898131 4.076571 -0.000021 -6.239414 13.169407 -14.831199 0.650341 0.000032 
